<!--suppress ALL -->
<svg id="svg" version="1.1" xmlns="http://www.w3.org/2000/svg" xmlns:xlink="http://www.w3.org/1999/xlink" width="400" height="400" viewBox="0, 0, 400,400"><g id="svgg"><path id="path0" d="M132.701 47.119 C 124.725 59.284,115.691 87.940,112.625 110.797 L 107.051 152.357 201.025 145.061 C 312.222 136.429,304.987 140.661,289.732 93.170 C 265.455 17.590,170.348 -10.301,132.701 47.119 M166.202 45.475 C 160.842 59.441,162.417 59.441,182.357 45.475 C 203.067 30.969,260.611 22.722,247.143 36.190 C 243.738 39.595,247.747 49.175,256.051 57.480 C 264.356 65.784,268.894 78.458,266.137 85.643 C 263.380 92.829,266.496 100.893,273.062 103.564 C 279.628 106.236,264.750 108.826,240.000 109.321 C 215.250 109.815,178.125 113.009,157.500 116.418 C 114.982 123.446,112.380 117.595,134.490 64.679 C 148.316 31.589,178.558 13.275,166.202 45.475 M260.000 151.253 C 218.750 156.157,153.500 164.030,115.000 168.748 C 36.484 178.370,21.420 175.856,71.403 161.472 C 93.174 155.207,97.753 151.486,84.411 150.902 C 73.088 150.406,55.088 156.750,44.411 165.000 C 19.733 184.070,46.398 210.000,90.687 210.000 C 105.462 210.000,123.153 216.750,130.000 225.000 C 137.149 233.614,158.957 240.000,181.224 240.000 C 212.603 240.000,220.000 243.611,220.000 258.930 C 220.000 285.265,197.431 291.315,126.282 284.052 C 57.319 277.013,25.259 296.460,31.696 341.425 C 37.084 379.053,74.215 389.705,200.000 389.705 C 352.472 389.705,408.609 357.833,351.968 303.425 C 315.947 268.823,315.500 207.911,351.119 187.489 C 414.721 151.021,379.563 137.040,260.000 151.253 M195.494 187.367 C 207.552 203.857,209.163 203.857,227.384 187.367 C 267.711 150.872,312.178 176.394,274.286 214.286 C 257.214 231.358,190.000 236.114,190.000 220.250 C 190.000 214.750,176.923 213.115,160.000 216.500 C 137.895 220.921,130.000 218.750,130.000 208.250 C 130.000 172.380,174.224 158.279,195.494 187.367 M289.878 310.172 C 227.350 397.984,3.245 397.362,50.264 309.506 C 61.142 289.181,66.993 287.955,124.816 293.879 C 198.828 301.461,218.305 295.761,230.816 262.853 C 238.737 242.019,244.499 239.399,270.050 245.011 C 291.308 249.680,300.435 247.731,301.498 238.295 C 302.322 230.983,304.872 237.384,307.165 252.521 C 309.814 270.013,303.515 291.020,289.878 310.172 M350.575 321.074 C 364.229 346.588,355.882 355.648,310.000 365.113 L 275.000 372.333 297.500 348.022 C 309.875 334.651,320.000 318.376,320.000 311.855 C 320.000 292.710,338.357 298.244,350.575 321.074 " stroke="none" fill="#000000" fill-rule="evenodd"></path></g></svg>